<?xml version="1.0" encoding="UTF-8"?>
<svg version="1.1" xmlns="http://www.w3.org/2000/svg" width="100" height="100">
<path d="M0 0 C33 0 66 0 100 0 C100 33 100 66 100 100 C67 100 34 100 0 100 C0 67 0 34 0 0 Z " fill="#040303" transform="translate(0,0)"/>
<path d="M0 0 C3.52379766 1.97029546 5.70068885 4.10206655 7 8 C7.804375 8.4125 8.60875 8.825 9.4375 9.25 C12.97216836 11.66391985 13.08259736 13.90697285 14 18 C14.495 19.1446875 14.495 19.1446875 15 20.3125 C16.26519005 23.71269826 16.82979809 27.12506379 17.4375 30.6953125 C17.92316127 33.25480466 17.92316127 33.25480466 20 36 C20.37167184 38.76020996 20.17850636 41.18852476 20 44 C19.34 44.66 18.68 45.32 18 46 C19.09918816 46.98475214 20.2045602 47.96260473 21.3125 48.9375 C22.23482422 49.75541016 22.23482422 49.75541016 23.17578125 50.58984375 C25.05241958 52.20081559 25.05241958 52.20081559 28 53 C30.0647104 56.79441811 30.21872326 60.04809172 30.125 64.3125 C30.10695312 65.38113281 30.08890625 66.44976562 30.0703125 67.55078125 C30.04710937 68.35902344 30.02390625 69.16726562 30 70 C29.34 70 28.68 70 28 70 C28 70.99 28 71.98 28 73 C26.35 72.34 24.7 71.68 23 71 C23 70.34 23 69.68 23 69 C22.01 69.66 21.02 70.32 20 71 C17.71602968 70.65394389 16.06590963 70.03295481 14 69 C14 65.37 14 61.74 14 58 C11.03 57.34 8.06 56.68 5 56 C5.43523284 50.86425246 5.80124824 47.22235233 9 43 C9.66 42.67 10.32 42.34 11 42 C11.72159424 40.35636866 12.39351421 38.68949614 13 37 C11.68 37 10.36 37 9 37 C8.505 37.99 8.505 37.99 8 39 C7.67 38.34 7.34 37.68 7 37 C6.34 37 5.68 37 5 37 C5 39.31 5 41.62 5 44 C3.1875 43.8125 3.1875 43.8125 1 43 C-1.98951889 39.02386569 -2.52055178 35.57687299 -3 30.6875 C-3.63740162 25.04900002 -4.44548056 20.10903888 -7 15 C-7.99 14.67 -8.98 14.34 -10 14 C-10 15.32 -10 16.64 -10 18 C-13.37462715 17.45276317 -15.08235 16.9451 -18 15 C-20.32387947 14.60612212 -22.65793749 14.26513915 -25 14 C-24.67 13.01 -24.34 12.02 -24 11 C-23.34 11 -22.68 11 -22 11 C-21.79375 10.401875 -21.5875 9.80375 -21.375 9.1875 C-19.47304173 6.1616573 -17.24699596 5.35291498 -14 4 C-13.34 4 -12.68 4 -12 4 C-12 3.34 -12 2.68 -12 2 C-8.30536161 -0.46309226 -4.28704359 -0.82284906 0 0 Z " fill="#2D151E" transform="translate(52,11)"/>
<path d="M0 0 C3.52379766 1.97029546 5.70068885 4.10206655 7 8 C7.99 8.66 8.98 9.32 10 10 C10.6953125 11.91015625 10.6953125 11.91015625 11.125 14.0625 C11.54252362 16.80313779 11.54252362 16.80313779 13 19 C13.14115161 21.67058851 13.04247107 24.32432238 13 27 C12.505 26.01 12.505 26.01 12 25 C11.21625 24.95875 10.4325 24.9175 9.625 24.875 C8.75875 24.58625 7.8925 24.2975 7 24 C6.03727136 21.9690382 5.43415839 19.98709447 4.87109375 17.8125 C4.58363281 17.214375 4.29617187 16.61625 4 16 C2.68 15.67 1.36 15.34 0 15 C-0.33 17.97 -0.66 20.94 -1 24 C-2.3463408 21.9804888 -3.65853818 19.93784165 -4.9375 17.875 C-6.74776587 14.75823926 -6.74776587 14.75823926 -10 14 C-10 15.32 -10 16.64 -10 18 C-13.37462715 17.45276317 -15.08235 16.9451 -18 15 C-20.32387947 14.60612212 -22.65793749 14.26513915 -25 14 C-24.67 13.01 -24.34 12.02 -24 11 C-23.34 11 -22.68 11 -22 11 C-21.79375 10.401875 -21.5875 9.80375 -21.375 9.1875 C-19.47304173 6.1616573 -17.24699596 5.35291498 -14 4 C-13.34 4 -12.68 4 -12 4 C-12 3.34 -12 2.68 -12 2 C-8.30536161 -0.46309226 -4.28704359 -0.82284906 0 0 Z " fill="#F4EFF5" transform="translate(52,11)"/>
<path d="M0 0 C0.33 0.99 0.66 1.98 1 3 C-0.4375 5.1875 -0.4375 5.1875 -2 7 C-1.443125 7.2475 -0.88625 7.495 -0.3125 7.75 C2 9 2 9 4.5625 11.0625 C6.92026019 13.16384349 6.92026019 13.16384349 10 14 C12.0647104 17.79441811 12.21872326 21.04809172 12.125 25.3125 C12.10695313 26.38113281 12.08890625 27.44976562 12.0703125 28.55078125 C12.04710938 29.35902344 12.02390625 30.16726562 12 31 C11.34 31 10.68 31 10 31 C10 31.99 10 32.98 10 34 C8.35 33.34 6.7 32.68 5 32 C5 31.34 5 30.68 5 30 C3.35 30.66 1.7 31.32 0 32 C0 27.38 0 22.76 0 18 C-2.64 17.67 -5.28 17.34 -8 17 C-8 16.01 -8 15.02 -8 14 C-8.66 14 -9.32 14 -10 14 C-9.58181281 9.12114941 -7.55070071 7.22040297 -4 4 C-3.236875 3.236875 -2.47375 2.47375 -1.6875 1.6875 C-1.130625 1.130625 -0.57375 0.57375 0 0 Z " fill="#D2CAD4" transform="translate(70,50)"/>
<path d="M0 0 C0 0.33 0 0.66 0 1 C-2.64 1.33 -5.28 1.66 -8 2 C-8 2.66 -8 3.32 -8 4 C-8.66 4 -9.32 4 -10 4 C-10 4.66 -10 5.32 -10 6 C-11.32 6 -12.64 6 -14 6 C-14 6.99 -14 7.98 -14 9 C-12.35 9 -10.7 9 -9 9 C-9.33 10.32 -9.66 11.64 -10 13 C-8.02 13 -6.04 13 -4 13 C-3.67 14.98 -3.34 16.96 -3 19 C-3.598125 18.360625 -4.19625 17.72125 -4.8125 17.0625 C-6.90810337 14.79689611 -6.90810337 14.79689611 -10 14 C-10 15.32 -10 16.64 -10 18 C-13.37462715 17.45276317 -15.08235 16.9451 -18 15 C-20.32387947 14.60612212 -22.65793749 14.26513915 -25 14 C-24.67 13.01 -24.34 12.02 -24 11 C-23.34 11 -22.68 11 -22 11 C-21.79375 10.401875 -21.5875 9.80375 -21.375 9.1875 C-19.47304173 6.1616573 -17.24699596 5.35291498 -14 4 C-13.34 4 -12.68 4 -12 4 C-12 3.34 -12 2.68 -12 2 C-8.09971775 -0.60018816 -4.52565431 -0.15085514 0 0 Z " fill="#F3E5F0" transform="translate(52,11)"/>
<path d="M0 0 C0.66 0 1.32 0 2 0 C2.28875 1.051875 2.5775 2.10375 2.875 3.1875 C3.85588672 6.79465787 3.85588672 6.79465787 5 9.3125 C6.26519005 12.71269826 6.82979809 16.12506379 7.4375 19.6953125 C7.92316127 22.25480466 7.92316127 22.25480466 10 25 C10.25760279 27.69452521 10.08900053 30.28548375 10 33 C8.68 33.66 7.36 34.32 6 35 C6.37125 34.0925 6.7425 33.185 7.125 32.25 C8.24381603 29.21402215 8.24381603 29.21402215 7.4375 27.0625 C6.55106195 25.79065411 5.65573206 24.52488879 4.74609375 23.26953125 C4.06740234 22.33173828 4.06740234 22.33173828 3.375 21.375 C2.92898437 20.78460938 2.48296875 20.19421875 2.0234375 19.5859375 C1 18 1 18 1 16 C0.34 16 -0.32 16 -1 16 C-1 18.64 -1 21.28 -1 24 C-1.33 23.01 -1.66 22.02 -2 21 C-2.99 20.67 -3.98 20.34 -5 20 C-5.66 14.72 -6.32 9.44 -7 4 C-5.515 4.99 -5.515 4.99 -4 6 C-3.87625 6.99 -3.7525 7.98 -3.625 9 C-3.41875 9.99 -3.2125 10.98 -3 12 C-0.53744315 13.45291273 -0.53744315 13.45291273 2 14 C2.23428313 9.2102679 2.23428313 9.2102679 0 5 C-0.125 2.3125 -0.125 2.3125 0 0 Z " fill="#9C4E95" transform="translate(62,22)"/>
<path d="M0 0 C1.32 0.33 2.64 0.66 4 1 C4 2.65 4 4.3 4 6 C4.66 6 5.32 6 6 6 C5.67 7.65 5.34 9.3 5 11 C4.34 11 3.68 11 3 11 C3 9.68 3 8.36 3 7 C1.02 7.66 -0.96 8.32 -3 9 C-2.01 6.03 -1.02 3.06 0 0 Z M1 11 C1.66 11 2.32 11 3 11 C3.25 16.625 3.25 16.625 1 20 C1.66 20.33 2.32 20.66 3 21 C2.2884375 21.61875 2.2884375 21.61875 1.5625 22.25 C-0.16266518 24.182185 -0.56584875 25.48192275 -1 28 C-2.32 28 -3.64 28 -5 28 C-5.66 27.34 -6.32 26.68 -7 26 C-6.86328125 23.7578125 -6.86328125 23.7578125 -6.3125 21.125 C-6.14363281 20.26132813 -5.97476562 19.39765625 -5.80078125 18.5078125 C-4.94567088 15.82985711 -3.80254838 14.13525015 -2 12 C-2.875 17.75 -2.875 17.75 -4 20 C-3.34 20 -2.68 20 -2 20 C-1.814375 18.88625 -1.814375 18.88625 -1.625 17.75 C-1.04513299 15.19858515 -0.26291261 13.2732427 1 11 Z " fill="#292C29" transform="translate(37,60)"/>
<path d="M0 0 C-0.63808594 0.33773438 -1.27617188 0.67546875 -1.93359375 1.0234375 C-2.75988281 1.46945313 -3.58617187 1.91546875 -4.4375 2.375 C-5.26121094 2.81585937 -6.08492187 3.25671875 -6.93359375 3.7109375 C-9.13466578 4.83418559 -9.13466578 4.83418559 -10 7 C-10.66 7 -11.32 7 -12 7 C-12 7.66 -12 8.32 -12 9 C-10.741875 9.268125 -9.48375 9.53625 -8.1875 9.8125 C-5.00551199 10.59532537 -2.99755689 11.25335928 -1 14 C-1.33 14.66 -1.66 15.32 -2 16 C-0.35 17.32 1.3 18.64 3 20 C2.67 20.99 2.34 21.98 2 23 C0.9171875 21.824375 0.9171875 21.824375 -0.1875 20.625 C-4.8851121 16.60984971 -11.07540551 16.58894337 -17 16 C-17 15.34 -17 14.68 -17 14 C-17.66 14 -18.32 14 -19 14 C-18.34 12.68 -17.68 11.36 -17 10 C-16.34 10 -15.68 10 -15 10 C-14.7421875 9.40574219 -14.484375 8.81148437 -14.21875 8.19921875 C-12.90163023 5.822493 -11.58656066 4.53214427 -9.5 2.8125 C-8.8915625 2.30332031 -8.283125 1.79414063 -7.65625 1.26953125 C-4.69541941 -0.99997333 -3.51169027 -1.05350708 0 0 Z " fill="#220F17" transform="translate(40,15)"/>
<path d="M0 0 C0.33 0.99 0.66 1.98 1 3 C-0.4375 5.1875 -0.4375 5.1875 -2 7 C-1.360625 7.268125 -0.72125 7.53625 -0.0625 7.8125 C2 9 2 9 3 12 C3 13.65 3 15.3 3 17 C-0.63 17 -4.26 17 -8 17 C-8 16.01 -8 15.02 -8 14 C-8.66 14 -9.32 14 -10 14 C-9.58181281 9.12114941 -7.55070071 7.22040297 -4 4 C-3.236875 3.236875 -2.47375 2.47375 -1.6875 1.6875 C-1.130625 1.130625 -0.57375 0.57375 0 0 Z " fill="#F9F6F8" transform="translate(70,50)"/>
<path d="M0 0 C0.66 0 1.32 0 2 0 C2.3389231 3.35362609 2.67011964 6.70797332 3 10.0625 C3.09539063 11.00544922 3.19078125 11.94839844 3.2890625 12.91992188 C3.78225278 17.97512222 4.11270932 22.92103608 4 28 C2.125 27.6875 2.125 27.6875 0 27 C-2.40078639 23.39882041 -2.52567467 20.96913314 -3 16.6875 C-3.53897974 11.85111926 -4.30049574 7.5674177 -6 3 C-4.68 4.32 -3.36 5.64 -2 7 C-1.34 4.69 -0.68 2.38 0 0 Z " fill="#C66EBF" transform="translate(52,25)"/>
<path d="M0 0 C1.8984375 0.3046875 1.8984375 0.3046875 4 1 C7.2456513 7.24163712 7.78834173 13.9041384 8.5703125 20.8046875 C8.80936026 23.88873681 8.80936026 23.88873681 10 26 C9.01 25.67 8.02 25.34 7 25 C6.29289322 23.35008418 5.63437344 21.6792238 5 20 C3.948125 18.4840625 3.948125 18.4840625 2.875 16.9375 C1 14 1 14 1 10 C0.01 9.67 -0.98 9.34 -2 9 C-2 8.34 -2 7.68 -2 7 C-2.99 6.67 -3.98 6.34 -5 6 C-4.67 5.34 -4.34 4.68 -4 4 C-2.68 4 -1.36 4 0 4 C0 2.68 0 1.36 0 0 Z " fill="#222A18" transform="translate(42,25)"/>
<path d="M0 0 C0.5775 0.226875 1.155 0.45375 1.75 0.6875 C0.821875 1.368125 -0.10625 2.04875 -1.0625 2.75 C-4.56386639 5.63055675 -5.75631023 8.45537899 -7.25 12.6875 C-6.59 12.6875 -5.93 12.6875 -5.25 12.6875 C-5.25 13.6775 -5.25 14.6675 -5.25 15.6875 C-2.61 16.0175 0.03 16.3475 2.75 16.6875 C2.75 21.3075 2.75 25.9275 2.75 30.6875 C1.43 30.0275 0.11 29.3675 -1.25 28.6875 C-1.25 25.0575 -1.25 21.4275 -1.25 17.6875 C-5.705 16.6975 -5.705 16.6975 -10.25 15.6875 C-9.71986554 9.43191338 -8.98743412 5.33662979 -4.3125 0.8125 C-2.25 -0.3125 -2.25 -0.3125 0 0 Z " fill="#42A94C" transform="translate(67.25,51.3125)"/>
<path d="M0 0 C0.66 0.33 1.32 0.66 2 1 C1.01 3.64 0.02 6.28 -1 9 C0.65 8.67 2.3 8.34 4 8 C4 9.32 4 10.64 4 12 C3.34 12 2.68 12 2 12 C1.01 14.97 0.02 17.94 -1 21 C-1.66 21 -2.32 21 -3 21 C-2.67 19.02 -2.34 17.04 -2 15 C-3.2375 14.195625 -3.2375 14.195625 -4.5 13.375 C-7 11 -7 11 -7.3125 7.75 C-7.209375 6.8425 -7.10625 5.935 -7 5 C-6.01 4.67 -5.02 4.34 -4 4 C-2.62804426 2.70644173 -1.28817344 1.37701298 0 0 Z " fill="#052006" transform="translate(36,59)"/>
<path d="M0 0 C1.32 0.33 2.64 0.66 4 1 C6.14277622 4.73975095 6.21824242 8.06996998 6.125 12.3125 C6.10695313 13.38113281 6.08890625 14.44976562 6.0703125 15.55078125 C6.03550781 16.76314453 6.03550781 16.76314453 6 18 C5.34 18 4.68 18 4 18 C4 18.99 4 19.98 4 21 C3.34 21 2.68 21 2 21 C1.34 14.07 0.68 7.14 0 0 Z " fill="#D623D3" transform="translate(76,63)"/>
<path d="M0 0 C0 0.33 0 0.66 0 1 C-2.64 1.33 -5.28 1.66 -8 2 C-8 2.66 -8 3.32 -8 4 C-8.66 4 -9.32 4 -10 4 C-10 4.66 -10 5.32 -10 6 C-11.32 6 -12.64 6 -14 6 C-14 6.66 -14 7.32 -14 8 C-15.96147874 9.38938077 -17.96166576 10.7260411 -20 12 C-18.35 12.33 -16.7 12.66 -15 13 C-15.33 13.66 -15.66 14.32 -16 15 C-18.97 14.67 -21.94 14.34 -25 14 C-24.67 13.01 -24.34 12.02 -24 11 C-23.34 11 -22.68 11 -22 11 C-21.79375 10.401875 -21.5875 9.80375 -21.375 9.1875 C-19.47304173 6.1616573 -17.24699596 5.35291498 -14 4 C-13.34 4 -12.68 4 -12 4 C-12 3.34 -12 2.68 -12 2 C-8.09971775 -0.60018816 -4.52565431 -0.15085514 0 0 Z " fill="#A1DFBB" transform="translate(52,11)"/>
<path d="M0 0 C1.485 0.99 1.485 0.99 3 2 C3.12375 2.99 3.2475 3.98 3.375 5 C3.58125 5.99 3.7875 6.98 4 8 C6.46255685 9.45291273 6.46255685 9.45291273 9 10 C8.67 11.32 8.34 12.64 8 14 C8 13.34 8 12.68 8 12 C7.34 12 6.68 12 6 12 C6 14.64 6 17.28 6 20 C5.67 19.01 5.34 18.02 5 17 C4.01 16.67 3.02 16.34 2 16 C1.34 10.72 0.68 5.44 0 0 Z " fill="#6D8C69" transform="translate(55,26)"/>
<path d="M0 0 C0.33 0.99 0.66 1.98 1 3 C-0.4375 5.1875 -0.4375 5.1875 -2 7 C-1.01 7.33 -0.02 7.66 1 8 C0.401875 8.061875 -0.19625 8.12375 -0.8125 8.1875 C-3.88310372 9.32800995 -4.48582363 11.17812585 -6 14 C-6.66 14.66 -7.32 15.32 -8 16 C-8 15.34 -8 14.68 -8 14 C-8.66 14 -9.32 14 -10 14 C-9.58181281 9.12114941 -7.55070071 7.22040297 -4 4 C-3.236875 3.236875 -2.47375 2.47375 -1.6875 1.6875 C-1.130625 1.130625 -0.57375 0.57375 0 0 Z " fill="#D5FDE6" transform="translate(70,50)"/>
<path d="M0 0 C1.32 0.33 2.64 0.66 4 1 C4 2.65 4 4.3 4 6 C4.66 6 5.32 6 6 6 C5.67 7.65 5.34 9.3 5 11 C4.34 11 3.68 11 3 11 C3 9.68 3 8.36 3 7 C1.02 7.66 -0.96 8.32 -3 9 C-2.01 6.03 -1.02 3.06 0 0 Z M1 11 C3 12 3 12 3 12 Z " fill="#491940" transform="translate(37,60)"/>
<path d="M0 0 C2.29013653 3.4352048 2.17842973 4.985331 2 9 C2.99 9.33 3.98 9.66 5 10 C6.1875 13.0625 6.1875 13.0625 7 16 C1.98886765 14.5682479 0.05530451 12.01554307 -3 8 C-2.01 7.67 -1.02 7.34 0 7 C0 4.69 0 2.38 0 0 Z " fill="#451040" transform="translate(72,48)"/>
<path d="M0 0 C1.98 0.99 3.96 1.98 6 3 C5.67 3.99 5.34 4.98 5 6 C7.475 7.98 7.475 7.98 10 10 C9.67 10.99 9.34 11.98 9 13 C8.175 12.236875 7.35 11.47375 6.5 10.6875 C2.95583932 7.70294364 -0.62110717 6.43446489 -5 5 C-5 4.67 -5 4.34 -5 4 C-3.02 4 -1.04 4 1 4 C0.67 2.68 0.34 1.36 0 0 Z " fill="#454648" transform="translate(33,25)"/>
<path d="M0 0 C3.23518553 3.23518553 2.97142304 6.99637714 3.09765625 11.4296875 C3.08605469 12.56664062 3.07445312 13.70359375 3.0625 14.875 C3.05347656 16.02742188 3.04445312 17.17984375 3.03515625 18.3671875 C3.02355469 19.23601563 3.01195312 20.10484375 3 21 C2.34 20.67 1.68 20.34 1 20 C-0.06632314 15.53351439 -0.10565959 11.19991621 -0.0625 6.625 C-0.05347656 5.37976563 -0.04445312 4.13453125 -0.03515625 2.8515625 C-0.02355469 1.91054688 -0.01195312 0.96953125 0 0 Z " fill="#172211" transform="translate(54,26)"/>
<path d="M0 0 C3.54720774 3.07424671 5.01442622 5.40065568 6 10 C6.153692 14.00623807 6.11670318 17.99319094 6 22 C5.34 21.67 4.68 21.34 4 21 C3.5714932 18.58667353 3.24904206 16.245272 3 13.8125 C2.49154313 8.9868677 1.70603268 4.57074588 0 0 Z " fill="#4FC25D" transform="translate(46,28)"/>
<path d="M0 0 C-0.63808594 0.33773438 -1.27617188 0.67546875 -1.93359375 1.0234375 C-2.75988281 1.46945313 -3.58617187 1.91546875 -4.4375 2.375 C-5.26121094 2.81585937 -6.08492187 3.25671875 -6.93359375 3.7109375 C-9.13466578 4.83418559 -9.13466578 4.83418559 -10 7 C-10.66 7 -11.32 7 -12 7 C-12.33 8.32 -12.66 9.64 -13 11 C-13.66 11 -14.32 11 -15 11 C-15.33 11.99 -15.66 12.98 -16 14 C-16.99 14 -17.98 14 -19 14 C-18.34 12.68 -17.68 11.36 -17 10 C-16.34 10 -15.68 10 -15 10 C-14.7421875 9.40574219 -14.484375 8.81148437 -14.21875 8.19921875 C-12.90163023 5.822493 -11.58656066 4.53214427 -9.5 2.8125 C-8.8915625 2.30332031 -8.283125 1.79414063 -7.65625 1.26953125 C-4.69541941 -0.99997333 -3.51169027 -1.05350708 0 0 Z " fill="#3AB455" transform="translate(40,15)"/>
<path d="M0 0 C1.33895632 1.66215268 2.67130142 3.32963607 4 5 C4.86625 6.0209375 4.86625 6.0209375 5.75 7.0625 C7 9 7 9 7 13 C5.35 13.33 3.7 13.66 2 14 C2.20625 13.38125 2.4125 12.7625 2.625 12.125 C2.74875 11.42375 2.8725 10.7225 3 10 C2.34 9.34 1.68 8.68 1 8 C0.43479997 5.34462628 0.26211802 2.70855287 0 0 Z " fill="#114211" transform="translate(62,38)"/>
<path d="M0 0 C0.33 0 0.66 0 1 0 C1.33821197 2.85366354 1.6706978 5.70780596 2 8.5625 C2.09539063 9.36236328 2.19078125 10.16222656 2.2890625 10.98632812 C2.82714176 15.69452167 3.10176703 20.26147265 3 25 C1.68 24.67 0.36 24.34 -1 24 C-1 23.34 -1 22.68 -1 22 C-0.34 22 0.32 22 1 22 C0.83628906 21.35675781 0.67257813 20.71351562 0.50390625 20.05078125 C-0.15334676 16.07159829 -0.106353 12.2118563 -0.0625 8.1875 C-0.05573242 7.00510742 -0.05573242 7.00510742 -0.04882812 5.79882812 C-0.03711312 3.86585239 -0.01917998 1.93291607 0 0 Z " fill="#942983" transform="translate(53,28)"/>
<path d="M0 0 C2 2 2 2 2.1953125 4.8203125 C2.16050781 6.45613281 2.16050781 6.45613281 2.125 8.125 C2.10695313 9.22070312 2.08890625 10.31640625 2.0703125 11.4453125 C2.04710938 12.28835937 2.02390625 13.13140625 2 14 C1.34 14 0.68 14 0 14 C0 14.99 0 15.98 0 17 C-0.66 17 -1.32 17 -2 17 C-2 15.02 -2 13.04 -2 11 C-1.67 11 -1.34 11 -1 11 C-0.67 7.37 -0.34 3.74 0 0 Z " fill="#AB1594" transform="translate(80,67)"/>
<path d="M0 0 C1.98 0 3.96 0 6 0 C5.401875 0.61875 4.80375 1.2375 4.1875 1.875 C1.31055842 5.98491654 0.23497817 10.18171396 -1 15 C-0.01 15.33 0.98 15.66 2 16 C0.68 16 -0.64 16 -2 16 C-2.20674944 10.21101581 -1.59162079 5.57067277 0 0 Z " fill="#022E03" transform="translate(58,52)"/>
<path d="M0 0 C0.99 0 1.98 0 3 0 C3 3.63 3 7.26 3 11 C2.01 11 1.02 11 0 11 C0 7.37 0 3.74 0 0 Z " fill="#24D027" transform="translate(66,69)"/>
<path d="M0 0 C0.66 0 1.32 0 2 0 C2.16873478 1.43725871 2.33490737 2.87481838 2.5 4.3125 C2.5928125 5.11300781 2.685625 5.91351563 2.78125 6.73828125 C3 9 3 9 3 12 C2.01 12.33 1.02 12.66 0 13 C0 8.71 0 4.42 0 0 Z " fill="#A22FA9" transform="translate(70,69)"/>
<path d="M0 0 C0.66 0.66 1.32 1.32 2 2 C4.10820797 1.6814823 4.10820797 1.6814823 6 1 C6 2.32 6 3.64 6 5 C5.34 5 4.68 5 4 5 C3.34 6.32 2.68 7.64 2 9 C2 7.68 2 6.36 2 5 C1.01 5 0.02 5 -1 5 C-0.67 3.35 -0.34 1.7 0 0 Z " fill="#140A14" transform="translate(34,66)"/>
<path d="M0 0 C2.31 0 4.62 0 7 0 C6.67 1.98 6.34 3.96 6 6 C4.68 5.67 3.36 5.34 2 5 C2 4.34 2 3.68 2 3 C1.01 2.67 0.02 2.34 -1 2 C-0.67 1.34 -0.34 0.68 0 0 Z " fill="#14050F" transform="translate(38,29)"/>
<path d="M0 0 C0.66 0.33 1.32 0.66 2 1 C1.1875 3.4375 1.1875 3.4375 0 6 C-0.99 6.33 -1.98 6.66 -3 7 C-4.66710346 8.49985609 -4.66710346 8.49985609 -6 10 C-5.58578031 5.16743695 -3.53586014 3.17320782 0 0 Z " fill="#30993A" transform="translate(36,59)"/>
<path d="M0 0 C1.32 0 2.64 0 4 0 C4 0.66 4 1.32 4 2 C5.32 1.67 6.64 1.34 8 1 C8 3.31 8 5.62 8 8 C4.22471696 6.74157232 3.89332955 5.37506571 2 2 C1.34 1.34 0.68 0.68 0 0 Z " fill="#4F245C" transform="translate(53,12)"/>
<path d="M0 0 C0.66 0 1.32 0 2 0 C2.22162329 1.62324086 2.42689803 3.248721 2.625 4.875 C2.74101563 5.77992187 2.85703125 6.68484375 2.9765625 7.6171875 C2.98429687 8.40351562 2.99203125 9.18984375 3 10 C2.34 10.66 1.68 11.32 1 12 C-0.26237731 9.47524538 -0.09856404 7.68799534 -0.0625 4.875 C-0.05347656 3.96492188 -0.04445313 3.05484375 -0.03515625 2.1171875 C-0.02355469 1.41851562 -0.01195313 0.71984375 0 0 Z " fill="#43D34C" transform="translate(74,70)"/>
<path d="M0 0 C0.86625 0.3403125 0.86625 0.3403125 1.75 0.6875 C-3.875 5.6875 -3.875 5.6875 -7.25 5.6875 C-5.99519591 1.92308774 -4.25905546 -0.59153548 0 0 Z " fill="#44CC62" transform="translate(67.25,51.3125)"/>
<path d="M0 0 C0.66 0 1.32 0 2 0 C2.25 2.25 2.25 2.25 2 5 C0 7.3125 0 7.3125 -2 9 C-2.25 3.375 -2.25 3.375 0 0 Z " fill="#491150" transform="translate(38,72)"/>
<path d="M0 0 C2.31 0 4.62 0 7 0 C7.33 1.98 7.66 3.96 8 6 C7.1028125 5.0409375 7.1028125 5.0409375 6.1875 4.0625 C4.09189663 1.79689611 4.09189663 1.79689611 1 1 C1 2.32 1 3.64 1 5 C0.01 4.67 -0.98 4.34 -2 4 C-1.34 4 -0.68 4 0 4 C0 2.68 0 1.36 0 0 Z " fill="#BBB2AF" transform="translate(41,24)"/>
<path d="M0 0 C0.99 0 1.98 0 3 0 C3 1.65 3 3.3 3 5 C1.68 5.33 0.36 5.66 -1 6 C-1.042721 4.33388095 -1.04063832 2.66617115 -1 1 C-0.67 0.67 -0.34 0.34 0 0 Z " fill="#A759B3" transform="translate(37,60)"/>
<path d="M0 0 C0.99 0.33 1.98 0.66 3 1 C3.33 3.64 3.66 6.28 4 9 C0 4.5 0 4.5 0 0 Z " fill="#020C07" transform="translate(45,34)"/>
<path d="M0 0 C0.33 0.99 0.66 1.98 1 3 C-0.4375 5.1875 -0.4375 5.1875 -2 7 C-1.01 7.33 -0.02 7.66 1 8 C-0.32 8.33 -1.64 8.66 -3 9 C-3.36923077 3.46153846 -3.36923077 3.46153846 -1.5 1.125 C-1.005 0.75375 -0.51 0.3825 0 0 Z " fill="#E4C4ED" transform="translate(70,50)"/>
<path d="M0 0 C0.33 0 0.66 0 1 0 C1.06058594 0.62648437 1.12117188 1.25296875 1.18359375 1.8984375 C1.26738281 2.71570312 1.35117187 3.53296875 1.4375 4.375 C1.55931641 5.59316406 1.55931641 5.59316406 1.68359375 6.8359375 C1.89090114 9.04272805 1.89090114 9.04272805 3 11 C2.01 10.67 1.02 10.34 0 10 C-1.125 7.5625 -1.125 7.5625 -2 5 C-2.33 4.34 -2.66 3.68 -3 3 C-2.01 3 -1.02 3 0 3 C0 2.01 0 1.02 0 0 Z " fill="#0F3E14" transform="translate(49,40)"/>
<path d="M0 0 C1.98 0 3.96 0 6 0 C4.71937515 1.7074998 3.38232443 3.37373596 2 5 C1.34 5 0.68 5 0 5 C0 3.35 0 1.7 0 0 Z " fill="#011D02" transform="translate(58,52)"/>
<path d="M0 0 C2.5 1.8125 2.5 1.8125 5 4 C5 4.99 5 5.98 5 7 C3.0625 6.3125 3.0625 6.3125 1 5 C0.25 2.375 0.25 2.375 0 0 Z " fill="#302F35" transform="translate(43,36)"/>
<path d="M0 0 C0.66 0 1.32 0 2 0 C1.67 1.32 1.34 2.64 1 4 C-0.65 4.33 -2.3 4.66 -4 5 C-4 4.01 -4 3.02 -4 2 C-2.68 2 -1.36 2 0 2 C0 1.34 0 0.68 0 0 Z " fill="#EFFEFB" transform="translate(42,15)"/>
<path d="M0 0 C0.7425 0.0825 1.485 0.165 2.25 0.25 C1.63125 0.3325 1.0125 0.415 0.375 0.5 C-1.93437567 1.06258459 -1.93437567 1.06258459 -3 3.3125 C-3.2475 3.951875 -3.495 4.59125 -3.75 5.25 C-4.74 4.92 -5.73 4.59 -6.75 4.25 C-3.42692308 0.31153846 -3.42692308 0.31153846 0 0 Z " fill="#862B7B" transform="translate(29.75,24.75)"/>
<path d="M0 0 C1.65 0 3.3 0 5 0 C0.25 4.875 0.25 4.875 -2 6 C-1.49396008 3.83125748 -1.00016187 2.00032373 0 0 Z " fill="#012E04" transform="translate(28,16)"/>
</svg>
